<?xml version="1.0" encoding="iso-8859-1"?>
<!-- Generator: Adobe Illustrator 16.0.0, SVG Export Plug-In . SVG Version: 6.00 Build 0)  -->
<!DOCTYPE svg PUBLIC "-//W3C//DTD SVG 1.1//EN" "http://www.w3.org/Graphics/SVG/1.1/DTD/svg11.dtd">
<svg version="1.1" id="Capa_1" xmlns="http://www.w3.org/2000/svg" xmlns:xlink="http://www.w3.org/1999/xlink" x="0px" y="0px"
	 width="80px" height="80px" viewBox="0 0 80 80" style="enable-background:new 0 0 80 80;" xml:space="preserve">
<g>
	<g>
		<path d="M40,0C17.908,0,0,17.909,0,40c0,22.092,17.908,40,40,40c22.092,0,40-17.908,40-40C80,17.909,62.092,0,40,0z
			 M57.501,63.879c-0.5,0.318-1.06,0.471-1.61,0.471c-0.99,0-1.959-0.49-2.531-1.387l-8.078-12.664
			c-0.596-0.936-0.598-2.066-0.125-2.984l-3.547-5.562c-2.217,1.227-4.763,1.928-7.471,1.928c-8.547,0-15.5-6.953-15.5-15.5
			c0-8.547,6.953-15.5,15.5-15.5s15.5,6.953,15.5,15.5c0,4.763-2.164,9.026-5.555,11.873l3.602,5.647
			c1.032-0.042,2.06,0.438,2.654,1.372l8.077,12.664C59.309,61.135,58.898,62.988,57.501,63.879z"/>
		<path d="M34.138,18.68c-5.238,0-9.5,4.262-9.5,9.5c0,5.238,4.262,9.5,9.5,9.5c5.238,0,9.5-4.262,9.5-9.5
			C43.639,22.942,39.376,18.68,34.138,18.68z"/>
	</g>
</g>
<g>
</g>
<g>
</g>
<g>
</g>
<g>
</g>
<g>
</g>
<g>
</g>
<g>
</g>
<g>
</g>
<g>
</g>
<g>
</g>
<g>
</g>
<g>
</g>
<g>
</g>
<g>
</g>
<g>
</g>
</svg>
